<!DOCTYPE svg PUBLIC "-//W3C//DTD SVG 1.1//EN" "http://www.w3.org/Graphics/SVG/1.1/DTD/svg11.dtd">
<!-- Uploaded to: SVG Repo, www.svgrepo.com, Transformed by: SVG Repo Mixer Tools -->
<svg width="64px" height="64px" viewBox="0 0 16 16" xmlns="http://www.w3.org/2000/svg" fill="#000000" class="bi bi-check-all">
<g id="SVGRepo_bgCarrier" stroke-width="0"/>
<g id="SVGRepo_tracerCarrier" stroke-linecap="round" stroke-linejoin="round"/>
<g id="SVGRepo_iconCarrier"> <path d="M8.97 4.97a.75.75 0 0 1 1.07 1.05l-3.99 4.99a.75.75 0 0 1-1.08.02L2.324 8.384a.75.75 0 1 1 1.06-1.06l2.094 2.093L8.95 4.992a.252.252 0 0 1 .02-.022zm-.92 5.14.92.92a.75.75 0 0 0 1.079-.02l3.992-4.99a.75.75 0 1 0-1.091-1.028L9.477 9.417l-.485-.486-.943 1.179z"/> </g>
</svg>